PathFileType	4	(X/Y/Z)	W18_1_OpenSim.trc																																																																																																																						
DataRate	CameraRate	NumFrames	NumMarkers	Units	OrigDataRate	OrigDataStartFrame	OrigNumFrames																																																																																																																		
100	100	9	40	mm	100	376	3000																																																																																																																		
Frame#	Time	R.ASIS			R.PSIS			S2			L.PSIS			L.ASIS			R.TH1			R.TH2			R.TH3			R.MKnee			R.Knee			R.SH1			R.SH2			R.SH3			R.SH4			R.Ankle			R.MAnkle			R.Heel			R.MT5			R.MT1			L.TH1			L.TH2			L.TH3			L.TH4			L.MKnee			L.Knee			L.SH1			L.SH2			L.SH3			L.Ankle			L.MAnkle			L.Heel			L.MT5			L.MT1			R.Acr			L.Acr			C7			T10			Clav			Sternum			R.Back		
		X1	Y1	Z1	X2	Y2	Z2	X3	Y3	Z3	X4	Y4	Z4	X5	Y5	Z5	X6	Y6	Z6	X7	Y7	Z7	X8	Y8	Z8	X9	Y9	Z9	X10	Y10	Z10	X11	Y11	Z11	X12	Y12	Z12	X13	Y13	Z13	X14	Y14	Z14	X15	Y15	Z15	X16	Y16	Z16	X17	Y17	Z17	X18	Y18	Z18	X19	Y19	Z19	X20	Y20	Z20	X21	Y21	Z21	X22	Y22	Z22	X23	Y23	Z23	X24	Y24	Z24	X25	Y25	Z25	X26	Y26	Z26	X27	Y27	Z27	X28	Y28	Z28	X29	Y29	Z29	X30	Y30	Z30	X31	Y31	Z31	X32	Y32	Z32	X33	Y33	Z33	X34	Y34	Z34	X35	Y35	Z35	X36	Y36	Z36	X37	Y37	Z37	X38	Y38	Z38	X39	Y39	Z39	X40	Y40	Z40
376	3.75	950.6266	1056.37	-374.2441	755.1211	1065.9965	-467.5601	747.7293	1059.7113	-512.5546	747.6248	1063.6228	-562.3942	923.9818	1052.3954	-667.5243	885.942	725.807	-359.5659	806.5707	735.1778	-343.316	791.6132	627.0737	-361.141	787.8384	505.9316	-494.6969	792.8245	505.7443	-378.0845	763.3175	340.6644	-380.7177	739.5825	232.9509	-404.1001	683.2475	356.7288	-364.844	664.0253	245.5386	-380.428	645.7203	85.2977	-400.3261	680.3867	102.2883	-494.3092	581.4045	51.9479	-456.8012	756.4448	37.1619	-377.8012	800.8541	39.3663	-468.8861	1003.4053	803.1501	-695.1455	1046.4731	703.1633	-695.841	928.6709	767.1922	-706.1501	974.8561	667.5435	-700.1601	1095.8203	544.5156	-583.417	1078.2219	553.4042	-695.7361	1082.1625	418.4937	-717.1663	1001.4669	425.5788	-712.6849	995.3507	316.6568	-709.3196	1037.3445	109.9002	-719.7585	1072.7052	119.9125	-623.9208	976.4766	70.2808	-661.2128	1144.2784	60.8486	-740.1708	1187.446	75.1865	-642.4169	921.9546	1455.9585	-358.4203	860.0421	1441.7886	-682.1169	834.0122	1493.0719	-513.5925	792.4269	1168.2365	-508.206	968.7629	1395.5459	-532.6519	995.2216	1252.4939	-526.1788	769.0862	1398.0161	-413.116
377	3.76	949.406	1053.1373	-374.6567	754.746	1063.921	-468.9224	747.3891	1057.7162	-513.9406	747.6815	1061.677	-563.7553	924.2724	1049.2676	-667.9434	879.3401	723.5895	-359.9053	800.2595	734.4597	-343.8756	783.138	626.7102	-361.7227	777.2502	505.3875	-494.9661	781.6504	505.2851	-378.4564	749.5931	340.7105	-380.879	724.4718	233.2405	-404.2132	669.6291	357.9432	-365.4754	648.9583	246.9798	-381.0916	628.5051	86.6173	-400.618	663.5299	103.1811	-494.6839	563.9715	53.9908	-457.1973	738.5635	37.1971	-377.8397	783.0504	39.3085	-468.9439	1001.5804	798.8444	-695.1733	1044.0793	698.7136	-695.3043	926.6393	763.3514	-706.3824	972.257	663.4764	-699.7465	1092.9329	540.4011	-582.6494	1076.2095	549.5104	-694.8135	1088.5237	416.3843	-717.4774	1007.4966	417.4665	-713.3032	1009.2349	308.4414	-710.5554	1067.5127	104.6673	-722.0279	1101.3997	116.5964	-626.0678	1009.6545	59.798	-664.2089	1177.9924	64.5178	-742.3944	1219.4904	81.4005	-644.3853	922.2197	1453.2613	-359.6099	859.4387	1438.5948	-683.0845	833.7781	1490.1586	-514.5018	792.0044	1165.3799	-509.0644	968.6281	1392.3325	-533.7189	994.8692	1249.2261	-526.9263	769.0278	1395.2548	-413.6066
378	3.77	948.2649	1049.6191	-375.1635	754.5477	1061.6244	-470.4671	747.1539	1055.5035	-515.5029	748.0028	1059.4949	-565.3088	924.8076	1045.9054	-668.4482	873.1049	721.2395	-360.377	794.2953	733.5829	-344.6188	775.0892	626.2153	-362.5224	767.1825	504.752	-495.4001	770.9744	504.7596	-378.9976	736.2551	340.7342	-381.1567	709.6409	233.5431	-404.4074	656.4573	359.1977	-366.2253	634.2064	248.5142	-381.8468	611.3777	88.0991	-400.9532	646.7704	104.2017	-495.0978	546.5538	56.2855	-457.5956	720.7107	37.2454	-377.8719	765.2709	39.2052	-469.0103	999.6007	793.7736	-695.1722	1041.3018	693.3991	-694.737	924.4044	758.9039	-706.67	969.2111	658.7091	-699.376	1089.2808	535.4742	-581.7715	1073.6061	544.9311	-693.8217	1093.8314	414.2303	-717.7545	1012.8578	409.4175	-713.5245	1022.2892	300.7931	-711.3315	1096.5221	100.9556	-723.8528	1128.8948	114.7774	-627.8402	1042.0244	51.1753	-666.7147	1209.8383	69.8487	-744.2947	1249.5924	89.2081	-646.0848	922.569	1450.4242	-360.896	858.9426	1435.3148	-684.1376	833.6183	1487.0859	-515.4977	791.7206	1162.3334	-510.0342	968.6039	1389.0267	-534.8515	994.6909	1245.8726	-527.7404	769.0661	1392.3157	-414.2028
379	3.78	947.1985	1045.8693	-375.7571	754.4908	1059.0869	-472.204	746.9833	1053.0457	-517.2514	748.5578	1057.0463	-567.0665	925.568	1042.363	-669.0577	867.2953	718.7828	-360.9739	788.7336	732.5673	-345.5152	767.5311	625.6002	-363.4997	757.7084	504.0283	-495.9798	760.8853	504.1696	-379.6833	723.3651	340.731	-381.5149	695.1146	233.8832	-404.6648	643.7895	360.5201	-367.0599	619.8069	250.1796	-382.6522	594.3578	89.7756	-401.2976	630.1249	105.4041	-495.5059	529.1591	58.9037	-457.9591	702.9026	37.2937	-377.885	747.5085	39.0458	-469.074	997.6757	788.1509	-695.1819	1038.3909	687.4399	-694.1818	922.2098	754.0143	-707.1232	965.9932	653.431	-699.1731	1085.0704	529.9614	-580.8301	1070.6522	539.8556	-692.8038	1098.0757	412.0018	-717.987	1017.5019	401.5717	-713.341	1034.2733	293.7762	-711.5651	1123.6907	98.6039	-725.0522	1154.6357	114.3424	-629.0855	1072.8355	44.3968	-668.4383	1239.1284	76.4322	-745.7782	1277.187	98.2336	-647.4714	923.0211	1447.4906	-362.2893	858.566	1431.9844	-685.2891	833.551	1483.9075	-516.5904	791.5695	1159.1464	-511.1228	968.695	1385.6818	-536.0586	994.6829	1242.4821	-528.6266	769.2169	1389.2686	-414.9006
380	3.79	946.2172	1041.9633	-376.4368	754.5443	1056.3092	-474.1449	746.8685	1050.3376	-519.1995	749.3196	1054.3243	-569.0408	926.5312	1038.7084	-669.7958	861.9686	716.2567	-361.6782	783.625	731.4388	-346.5434	760.5316	624.883	-364.613	748.923	503.2145	-496.6753	751.4834	503.5183	-380.4754	710.9905	340.7057	-381.9149	680.9298	234.2925	-404.9486	631.6947	361.9447	-367.9404	605.8044	252.0245	-383.4602	577.4783	91.6871	-401.6079	613.6251	106.847	-495.8521	511.8148	61.9349	-458.2468	685.1585	37.3231	-377.867	729.7577	38.8211	-469.125	996.0502	782.2474	-695.2437	1035.6492	681.1279	-693.6681	920.3248	748.8999	-707.8214	962.932	647.8898	-699.2161	1080.5832	524.1522	-579.8655	1067.6161	534.5209	-691.8055	1101.2955	409.6576	-718.1401	1021.3973	394.0642	-712.7712	1044.9535	287.4151	-711.2054	1148.2975	97.327	-725.4559	1178.0432	115.0408	-629.6593	1101.2567	39.317	-669.097	1265.1823	83.6574	-746.7541	1301.7301	107.913	-648.5041	923.5853	1444.5052	-363.7958	858.3215	1428.6428	-686.5527	833.5894	1480.6759	-517.7884	791.5518	1155.8727	-512.3407	968.9028	1382.3447	-537.3507	994.8364	1239.0977	-529.5975	769.4888	1386.1786	-415.7035
381	3.8	945.3441	1037.9933	-377.2101	754.6908	1053.3215	-476.3	746.8475	1047.4099	-521.3621	750.2733	1051.3586	-571.2418	927.6769	1035.0214	-670.6876	857.1786	713.7087	-362.4668	779.0109	730.2332	-347.6943	754.1639	624.086	-365.8232	740.9429	502.2991	-497.4456	742.8744	502.8095	-381.3298	699.2091	340.6737	-382.3141	667.1403	234.8078	-405.1945	620.2575	363.5098	-368.8221	592.2559	254.1047	-384.2162	560.7898	93.88	-401.8296	597.3245	108.5871	-496.067	494.5677	65.4851	-458.4124	667.4987	37.3092	-377.8065	712.015	38.5245	-469.1544	994.9728	776.3697	-695.3888	1033.3969	674.7997	-693.205	919.0128	743.8112	-708.7813	960.3747	642.3686	-699.5085	1076.1675	518.381	-578.9048	1064.7791	529.1958	-690.8638	1103.5896	407.1587	-718.1595	1024.5388	387.0283	-711.8367	1054.1196	281.7017	-710.2268	1169.647	96.736	-724.9377	1198.5476	116.4911	-629.4478	1126.4251	35.6711	-668.4829	1287.3832	90.7611	-747.1447	1322.7356	117.5091	-649.1442	924.2585	1441.5154	-365.4164	858.2215	1425.333	-687.9393	833.7376	1477.4435	-519.0972	791.6784	1152.5691	-513.6976	969.2255	1379.059	-538.7412	995.1385	1235.7583	-530.6724	769.8813	1383.1023	-416.6225
382	3.81	944.6153	1034.0609	-378.0928	754.9336	1050.1873	-478.6716	746.9919	1044.3307	-523.7491	751.4167	1048.2201	-573.6715	928.992	1031.3932	-671.7582	852.9784	711.1944	-363.3203	774.9273	728.9916	-348.9716	748.5067	623.2314	-367.097	733.902	501.2596	-498.2408	735.1693	502.0447	-382.2002	688.1126	340.6562	-382.6661	653.8203	235.4672	-405.3246	609.5812	365.253	-369.6557	579.2367	256.4774	-384.8561	544.3617	96.4032	-401.8965	581.3017	110.6734	-496.0706	477.4849	69.6721	-458.4034	649.9428	37.2231	-377.6917	694.2788	38.1518	-469.1547	994.6552	770.8274	-695.6261	1031.9265	668.8021	-692.7786	918.4943	739.0021	-709.9475	958.6391	637.1564	-699.9761	1072.2139	513.0004	-577.9672	1062.4249	524.1548	-689.989	1105.1226	404.4818	-717.9733	1026.9644	380.5991	-710.5472	1061.6082	276.6087	-708.6274	1187.1384	96.3918	-723.4529	1215.6268	118.2102	-628.3887	1147.5113	33.1108	-666.5295	1305.236	96.9197	-746.8963	1339.8098	126.1557	-649.3481	925.0249	1438.5714	-367.1482	858.2767	1422.1008	-689.456	833.9916	1474.2613	-520.5225	791.9685	1149.2935	-515.1984	969.6597	1375.8674	-540.2443	995.5774	1232.5062	-531.8757	770.383	1380.0872	-417.6769
383	3.82	944.0834	1030.2692	-379.1088	755.2966	1046.9992	-481.2485	747.3729	1041.1986	-526.354	752.7532	1045.0199	-576.3155	930.473	1027.9257	-673.0304	849.4249	708.7722	-364.2331	771.4135	727.7516	-350.388	743.645	622.333	-368.4118	727.9454	500.0644	-499.0085	728.4913	501.2182	-383.0397	677.8084	340.6744	-382.9233	641.0682	236.3045	-405.2642	599.7891	367.207	-370.3911	566.8462	259.1964	-385.3095	528.2871	99.3047	-401.733	565.6576	113.1423	-495.7803	460.6745	74.612	-458.1617	632.5053	37.0381	-377.511	676.548	37.7016	-469.1215	995.2332	765.8973	-695.9443	1031.4554	663.4526	-692.3608	918.9166	734.6982	-711.2128	957.9622	632.5126	-700.4951	1069.1169	508.3456	-577.0699	1060.8173	519.6436	-689.151	1106.1186	401.6309	-717.4957	1028.7676	374.9137	-708.9081	1067.3269	272.1078	-706.4404	1200.3346	95.8912	-721.0646	1228.8566	119.6616	-626.4863	1163.7977	31.2703	-663.3625	1318.4241	101.369	-745.9814	1352.6912	132.934	-649.0494	925.8573	1435.7251	-368.985	858.4923	1418.9968	-691.1073	834.3398	1471.182	-522.0726	792.4467	1146.1043	-516.8415	970.2014	1372.8171	-541.8718	996.1502	1229.3927	-533.2334	770.9734	1377.1735	-418.8927
384	3.83	943.8144	1026.712	-380.288	755.8196	1043.8695	-484.0018	748.0405	1038.13	-529.1472	754.2826	1041.8977	-579.1375	932.1244	1024.7302	-674.5225	846.5856	706.493	-365.2165	768.5248	726.532	-351.959	739.6772	621.3839	-369.7544	723.2228	498.6759	-499.7028	722.9823	500.312	-383.8062	668.4226	340.7445	-383.0427	629.0103	237.3438	-404.9528	591.0265	369.3928	-370.9846	555.2127	262.3068	-385.5082	512.6887	102.6305	-401.2621	550.5124	116.016	-495.1219	444.3092	80.4056	-457.6281	615.1963	36.7399	-377.2528	658.8221	37.1807	-469.0546	996.7441	761.7877	-696.3319	1032.0897	658.9987	-691.9291	920.3268	731.0673	-712.4612	958.4596	628.6333	-700.9377	1067.2135	504.6909	-576.2269	1060.1593	515.8469	-688.2893	1106.8339	398.6498	-716.6405	1030.0924	370.103	-706.9518	1071.2759	268.1854	-703.7593	1209.0226	94.9601	-717.9443	1237.973	120.3287	-623.8144	1174.7679	29.8496	-659.303	1326.8584	103.5319	-744.3959	1361.2982	136.9848	-648.1488	926.7218	1433.027	-370.9198	858.8646	1416.0774	-692.899	834.7686	1468.2607	-523.7578	793.1379	1143.0619	-518.619	970.8436	1369.9615	-543.6335	996.8634	1226.4816	-534.7696	771.6269	1374.3973	-420.3007
